<svg xmlns="http://www.w3.org/2000/svg" viewBox="0 0 48 48"><g><path fill="#4285F4" d="M44.5 20H24v8.5h11.7C34.7 33.1 29.8 36 24 36c-6.6 0-12-5.4-12-12s5.4-12 12-12c2.7 0 5.2.9 7.2 2.5l6.4-6.4C34.5 5.1 29.5 3 24 3 12.4 3 3 12.4 3 24s9.4 21 21 21c10.5 0 20.1-7.6 20.1-21 0-1.4-.1-2.4-.3-3.5z"/><path fill="#34A853" d="M6.3 14.7l7 5.1C15.5 16.1 19.4 13 24 13c2.7 0 5.2.9 7.2 2.5l6.4-6.4C34.5 5.1 29.5 3 24 3 15.1 3 7.2 8.7 6.3 14.7z"/><path fill="#FBBC05" d="M24 45c5.6 0 10.7-1.9 14.6-5.1l-6.7-5.5C29.7 36.1 27 37 24 37c-5.7 0-10.5-3.7-12.2-8.8l-7 5.4C7.2 39.3 15.1 45 24 45z"/><path fill="#EA4335" d="M44.5 20H24v8.5h11.7c-1.1 3.1-4.2 5.5-7.7 5.5-2.2 0-4.2-.7-5.7-2l-7 5.4C15.5 41.9 19.4 45 24 45c10.5 0 20.1-7.6 20.1-21 0-1.4-.1-2.4-.3-3.5z"/></g></svg>
